<?xml version="1.0" encoding="UTF-8"?>
<svg version="1.1" xmlns="http://www.w3.org/2000/svg" width="512" height="512">
<path d="M0 0 C168.96 0 337.92 0 512 0 C512 168.96 512 337.92 512 512 C343.04 512 174.08 512 0 512 C0 343.04 0 174.08 0 0 Z " fill="#F1F1F1" transform="translate(0,0)"/>
<path d="M0 0 C2.98885268 2.77737346 5.01050908 5.43928991 6.9609375 9.015625 C7.5075 10.00691406 8.0540625 10.99820313 8.6171875 12.01953125 C9.19726562 13.08558594 9.77734375 14.15164062 10.375 15.25 C11.6309504 17.52706973 12.88881161 19.80308641 14.1484375 22.078125 C14.46866882 22.65743774 14.78890015 23.23675049 15.11883545 23.83361816 C18.32026967 29.61042119 21.65058659 35.308174 25 41 C30.3737617 50.14995915 35.59273796 59.37670813 40.75219727 68.64892578 C44.7281555 75.77628115 48.80156697 82.83943408 52.9375 89.875 C60.0108327 101.90981773 66.77883607 114.10325643 73.50463867 126.3347168 C74.97039645 129.03358317 74.97039645 129.03358317 76.75512695 131.59692383 C78 134 78 134 77.86791992 135.97167969 C76.75932676 138.56245099 75.48667833 140.99099634 74.11328125 143.453125 C73.51088623 144.53650146 72.90849121 145.61987793 72.2878418 146.73608398 C71.62962798 147.90752053 70.97117528 149.07882287 70.3125 150.25 C69.64022838 151.45312119 68.96811106 152.65632862 68.29614258 153.85961914 C63.10509172 163.13161363 57.78600904 172.32684276 52.39379883 181.48339844 C51.8448999 182.41571289 51.29600098 183.34802734 50.73046875 184.30859375 C50.24989014 185.12126709 49.76931152 185.93394043 49.27416992 186.77124023 C48.11000535 188.80758021 47.04899568 190.90200865 46 193 C-5.15 193 -56.3 193 -109 193 C-107.56386092 188.69158276 -106.47293907 185.78934128 -104.234375 182.04296875 C-103.68136719 181.10839844 -103.12835938 180.17382812 -102.55859375 179.2109375 C-101.66333984 177.71433594 -101.66333984 177.71433594 -100.75 176.1875 C-95.72263435 167.68365376 -90.79726527 159.13575698 -86 150.5 C-80.86447161 141.27025844 -75.59786397 132.12761208 -70.25 123.01953125 C-66.07756041 115.8947181 -62.01504756 108.71453859 -58 101.5 C-52.86368611 92.27068598 -47.59787465 83.12763027 -42.25 74.01953125 C-38.07756028 66.89471789 -34.01505147 59.71453686 -30 52.5 C-24.75643989 43.07808144 -19.38407156 33.74045734 -13.92919922 24.43945312 C-9.18709283 16.34734368 -4.55691066 8.19761706 0 0 Z " fill="#72FCBA" transform="translate(153,70)"/>
<path d="M0 0 C65.67 0 131.34 0 199 0 C194.66672874 8.66654252 190.37621528 17.02968366 185.4375 25.3125 C180.51778496 33.6511792 175.70413831 42.03784776 171 50.5 C165.86416955 59.72957717 160.59786808 68.87238092 155.25 77.98046875 C151.07756041 85.1052819 147.01504756 92.28546141 143 99.5 C137.86815927 108.72127631 132.60872125 117.85746336 127.26318359 126.95629883 C122.95275324 134.31354896 118.76895656 141.73539429 114.625 149.1875 C109.95021476 157.59293706 105.18628774 165.89843871 100 174 C97.38287714 171.63728605 95.82678251 169.16564147 94.13671875 166.08203125 C93.58693359 165.08751953 93.03714844 164.09300781 92.47070312 163.06835938 C91.88224609 161.99392578 91.29378906 160.91949219 90.6875 159.8125 C89.42239246 157.52633591 88.15541801 155.24120408 86.88671875 152.95703125 C86.56339569 152.37462677 86.24007263 151.79222229 85.9069519 151.19216919 C82.68916417 145.41141749 79.35391829 139.70246767 76 134 C70.62729374 124.85131044 65.40922456 115.62595038 60.25 106.35546875 C56.25035548 99.18646305 52.15651956 92.07907237 48 85 C43.23570584 76.8858115 38.57577501 68.72196604 34 60.5 C29.40129134 52.2378697 24.72084326 44.03165629 19.9375 35.875 C15.10747082 27.63718518 10.3320227 19.37129988 5.625 11.0625 C4.77603149 9.56855713 4.77603149 9.56855713 3.90991211 8.04443359 C3.39565674 7.13387207 2.88140137 6.22331055 2.3515625 5.28515625 C1.89604004 4.47957275 1.44051758 3.67398926 0.97119141 2.84399414 C0 1 0 1 0 0 Z " fill="#7D7A7C" transform="translate(265,264)"/>
<path d="M0 0 C2.38185025 3.03543676 4.32669862 6.17710726 6.23046875 9.53125 C6.86017578 10.63726562 7.48988281 11.74328125 8.13867188 12.8828125 C8.82163619 14.08852943 9.50457828 15.29425895 10.1875 16.5 C10.90270706 17.75797613 11.61820698 19.0157858 12.33398438 20.2734375 C13.82063462 22.88607504 15.30602257 25.4994241 16.79052734 28.11328125 C20.18190405 34.08225255 23.59189689 40.04056769 27 46 C28.33353127 48.33322024 29.66676507 50.66661041 31 53 C31.66666119 54.1666698 32.33332785 55.33333646 33 56.5 C43 74 43 74 53 91.5 C53.49490181 92.36607628 53.49490181 92.36607628 53.99980164 93.24964905 C54.6671339 94.41748305 55.33446177 95.58531956 56.00178528 96.75315857 C57.65823255 99.65198546 59.3147704 102.5507605 60.97143555 105.44946289 C64.09334707 110.91213365 67.21455305 116.37520295 70.33328247 121.83969116 C71.80500228 124.41826832 73.27711956 126.99661846 74.74926758 129.57495117 C75.45031276 130.8030278 76.15116359 132.03121539 76.85180664 133.25952148 C77.8238877 134.96366068 78.79669496 136.66738557 79.76953125 138.37109375 C80.32229736 139.33974365 80.87506348 140.30839355 81.44458008 141.30639648 C82.49868995 143.13185468 83.5858024 144.93857796 84.7019043 146.72680664 C86 149 86 149 86 151 C34.52 151.495 34.52 151.495 -18 152 C-7.50095691 170.89031401 -7.50095691 170.89031401 3.5234375 189.40234375 C5 192 5 192 5 194 C-32.95 194 -70.9 194 -110 194 C-108.49756887 189.4927066 -107.18644101 186.27771609 -104.8671875 182.2734375 C-104.23425781 181.17386719 -103.60132813 180.07429687 -102.94921875 178.94140625 C-102.25785576 177.75257901 -101.56644827 176.56377765 -100.875 175.375 C-100.15437198 174.12663437 -99.43433046 172.87793002 -98.71484375 171.62890625 C-97.22069053 169.03611824 -95.72403245 166.44480118 -94.22558594 163.85449219 C-90.79338022 157.91652691 -87.39869229 151.95719212 -84 146 C-82.66706242 143.66644045 -81.33353021 141.33322092 -80 139 C-79.33332238 137.83333959 -78.66665571 136.66667293 -78 135.5 C-41.99999999 72.49999998 -41.99999999 72.49999998 -41.00007629 70.75013733 C-40.33315093 69.5830154 -39.66622996 68.41589097 -38.99931335 67.24876404 C-37.33664059 64.33904233 -35.67389262 61.42936365 -34.01098633 58.51977539 C-30.61370179 52.57534784 -27.21782268 46.63012336 -23.82421875 40.68359375 C-17.75488354 30.04963136 -11.68290418 19.41718094 -5.5625 8.8125 C-5.10770264 8.02222412 -4.65290527 7.23194824 -4.18432617 6.41772461 C-1.11792071 1.11792071 -1.11792071 1.11792071 0 0 Z " fill="#FC7BCB" transform="translate(284,113)"/>
<path d="M0 0 C2.25469828 2.87848008 4.09864299 5.81513374 5.86328125 9.015625 C6.4140332 10.00852539 6.96478516 11.00142578 7.53222656 12.02441406 C8.1197168 13.08885742 8.70720703 14.15330078 9.3125 15.25 C14.91879389 25.35081612 20.66101365 35.35781644 26.5559082 45.29394531 C27.10980225 46.23334961 27.66369629 47.17275391 28.234375 48.140625 C28.72131836 48.96079102 29.20826172 49.78095703 29.70996094 50.62597656 C31 53 31 53 33 58 C11.55 58 -9.9 58 -32 58 C-30.56386092 53.69158276 -29.47293907 50.78934128 -27.234375 47.04296875 C-26.40341309 45.63857544 -26.40341309 45.63857544 -25.55566406 44.20581055 C-24.95979492 43.20976807 -24.36392578 42.21372559 -23.75 41.1875 C-17.83174243 31.181606 -12.08836824 21.09874254 -6.44433594 10.9362793 C-5.89036133 9.94023682 -5.33638672 8.94419434 -4.765625 7.91796875 C-4.27868164 7.03906982 -3.79173828 6.1601709 -3.29003906 5.25463867 C-2.2637403 3.46094657 -1.14631456 1.71947185 0 0 Z " fill="#E97DC2" transform="translate(231,205)"/>
</svg>
